<?xml version="1.0" encoding="UTF-8"?>
<svg xmlns="http://www.w3.org/2000/svg" xmlns:xlink="http://www.w3.org/1999/xlink" width="1400px" height="1400px" viewBox="0 0 1400 1400" version="1.1">
<g id="surface1">
<path style=" stroke:none;fill-rule:nonzero;fill:rgb(13.725491%,12.156863%,12.54902%);fill-opacity:1;" d="M 532.144531 842.3125 L 532.144531 835.503906 L 522.171875 824.492188 L 522.171875 817.332031 L 528.753906 824.683594 L 532.144531 820.894531 L 524.984375 813.027344 L 517.59375 821.34375 L 517.59375 826.964844 L 528.347656 838.972656 L 525.625 841.960938 L 521.421875 837.207031 L 517.710938 841.382812 L 525.332031 849.792969 Z M 562.808594 813.0625 L 548.691406 813.0625 L 543.589844 818.777344 L 549.996094 818.777344 L 549.996094 842.3125 L 547.9375 844.625 L 552.574219 849.792969 L 557.242188 844.625 L 555.15625 842.3125 L 555.15625 818.777344 L 557.707031 818.777344 Z M 581.984375 831.652344 L 577.546875 831.652344 L 577.546875 819.324219 L 581.984375 824.332031 Z M 589.171875 844.625 L 587.171875 842.3125 L 587.171875 820.894531 L 580.070312 813.0625 L 572.359375 821.539062 L 572.359375 842.3125 L 570.273438 844.625 L 574.882812 849.792969 L 579.578125 844.625 L 577.546875 842.3125 L 577.546875 837.625 L 581.984375 837.625 L 581.984375 842.3125 L 579.925781 844.625 L 584.507812 849.792969 Z M 617.046875 821.34375 L 609.59375 813.027344 L 602.492188 820.894531 L 602.492188 842.3125 L 609.21875 849.792969 L 616.902344 841.382812 L 613.132812 837.304688 L 608.898438 841.894531 L 607.59375 840.515625 L 607.59375 819.515625 L 613.160156 825.679688 Z M 648.34375 844.625 L 646.34375 842.3125 L 646.34375 833.449219 L 640.546875 827.0625 L 646.34375 820.640625 L 646.34375 813.0625 L 636.722656 823.65625 L 636.722656 813.0625 L 631.53125 818.777344 L 631.53125 842.3125 L 629.445312 844.625 L 634.054688 849.792969 L 638.75 844.625 L 636.722656 842.3125 L 636.722656 831.300781 L 641.15625 836.242188 L 641.15625 842.3125 L 639.097656 844.625 L 643.679688 849.792969 Z M 690.046875 840.515625 L 690.046875 834.15625 L 694.769531 834.15625 L 694.769531 838.136719 L 691.351562 841.960938 Z M 697.03125 818.582031 L 692.015625 813.027344 L 684.886719 820.894531 L 684.886719 842.3125 L 691.699219 849.792969 L 699.929688 840.644531 L 699.929688 834.15625 L 704.917969 828.632812 L 699.929688 828.632812 L 699.929688 823.464844 L 695.292969 828.632812 L 690.046875 828.632812 L 690.046875 819.324219 L 693.148438 822.917969 Z M 755.414062 842.3125 L 755.414062 835.503906 L 745.441406 824.492188 L 745.441406 817.332031 L 752.023438 824.683594 L 755.414062 820.894531 L 748.253906 813.027344 L 740.863281 821.34375 L 740.863281 826.964844 L 751.617188 838.972656 L 748.890625 841.960938 L 744.6875 837.207031 L 740.976562 841.382812 L 748.601562 849.792969 Z M 786.078125 813.0625 L 771.960938 813.0625 L 766.855469 818.777344 L 773.265625 818.777344 L 773.265625 842.3125 L 771.207031 844.625 L 775.84375 849.792969 L 780.511719 844.625 L 778.421875 842.3125 L 778.421875 818.777344 L 780.976562 818.777344 Z M 805.085938 838.84375 L 802.273438 841.960938 L 800.941406 840.515625 L 800.941406 819.324219 L 805.085938 823.945312 Z M 810.246094 841.382812 L 810.246094 821.089844 L 802.941406 813.027344 L 795.839844 820.894531 L 795.839844 842.3125 L 802.5625 849.792969 Z M 841.210938 844.625 L 839.210938 842.3125 L 839.210938 820.894531 L 832.109375 813.0625 L 824.398438 821.539062 L 824.398438 842.3125 L 822.3125 844.625 L 826.921875 849.792969 L 831.617188 844.625 L 829.589844 842.3125 L 829.589844 819.324219 L 834.023438 824.332031 L 834.023438 842.3125 L 831.964844 844.625 L 836.546875 849.792969 Z M 869.085938 821.25 L 861.636719 813.027344 L 854.53125 820.894531 L 854.53125 842.3125 L 861.257812 849.792969 L 868.941406 841.382812 L 865.171875 837.304688 L 860.96875 841.960938 L 859.632812 840.515625 L 859.632812 834.15625 L 862.386719 834.15625 L 867.34375 828.632812 L 859.632812 828.632812 L 859.632812 819.324219 L 865.171875 825.617188 Z M 896.355469 842.3125 L 896.355469 835.503906 L 886.382812 824.492188 L 886.382812 817.332031 L 892.964844 824.683594 L 896.355469 820.894531 L 889.195312 813.027344 L 881.804688 821.34375 L 881.804688 826.964844 L 892.558594 838.972656 L 889.832031 841.960938 L 885.628906 837.207031 L 881.917969 841.382812 L 889.542969 849.792969 Z M 687.398438 790.707031 L 669.65625 771.054688 C 666.726562 767.8125 666.726562 762.558594 669.65625 759.316406 L 722.117188 701.207031 C 723.980469 699.144531 727 699.144531 728.863281 701.207031 L 741.511719 715.21875 C 748.121094 722.539062 748.082031 734.417969 741.417969 741.675781 C 727.765625 756.550781 706.246094 780.058594 696.890625 790.648438 C 694.292969 793.589844 690.023438 793.617188 687.398438 790.707031 M 660.910156 700.925781 L 693.394531 664.945312 C 696.027344 662.027344 700.304688 662.027344 702.941406 664.945312 L 720.195312 684.054688 C 722.828125 686.976562 722.828125 691.710938 720.195312 694.632812 L 687.582031 730.753906 C 684.925781 733.695312 680.617188 733.675781 677.988281 730.703125 C 673.171875 725.242188 665.761719 716.875 660.90625 711.5 C 658.269531 708.574219 658.273438 703.847656 660.910156 700.925781 M 705.585938 651.566406 L 723.015625 632.257812 C 725.773438 629.203125 730.246094 629.203125 733 632.257812 L 760.105469 662.285156 C 765.839844 668.632812 765.839844 678.925781 760.105469 685.273438 L 744.472656 702.589844 L 705.578125 659.328125 C 703.648438 657.183594 703.648438 653.710938 705.585938 651.566406 M 660.660156 631.882812 L 701.175781 586.738281 C 703.828125 583.78125 708.148438 583.773438 710.808594 586.722656 L 729.0625 606.941406 C 731.457031 609.59375 731.457031 613.890625 729.0625 616.542969 L 679.121094 671.867188 C 676.550781 674.710938 672.378906 674.6875 669.835938 671.8125 L 660.570312 661.355469 C 653.3125 653.160156 653.351562 640.023438 660.660156 631.882812 "/>
</g>
</svg>
