<svg xmlns="http://www.w3.org/2000/svg" id="svg1" version="1.1" viewBox="107.68715852941176 0 155.4302337394958 218.05798991999998" style="max-height: 500px" width="155.4302337394958" height="218.05798991999998">
  <defs id="defs1"/>
  
  <g transform="translate(-517.59375,-584.51562)" id="surface1">
    <path id="path1" d="m 532.14453,846.09517 v -6.83304 l -9.97266,-11.05125 v -7.18587 l 6.58204,7.37795 3.39062,-3.80266 -7.16016,-7.89543 -7.39062,8.34626 v 5.64127 l 10.75391,12.05093 -2.72266,2.99901 -4.20313,-4.77097 -3.71093,4.19077 7.62109,8.44035 z m 30.66406,-29.35502 h -14.11718 l -5.10157,5.73536 h 6.40625 v 23.61966 l -2.05859,2.3208 4.63672,5.18652 4.66797,-5.18652 -2.08594,-2.3208 v -23.61966 h 2.55078 z m 19.17578,18.65658 h -4.4375 v -12.37238 l 4.4375,5.02579 z m 7.1875,13.01924 -2,-2.3208 V 824.6003 l -7.10156,-7.86015 -7.71094,8.507 v 20.84802 l -2.08593,2.3208 4.60937,5.18652 4.69531,-5.18652 -2.03125,-2.3208 v -4.70433 h 4.4375 v 4.70433 l -2.05859,2.3208 4.58203,5.18652 z m 27.875,-23.36484 -7.45312,-8.34626 -7.10156,7.89543 v 21.49487 l 6.72656,7.50732 7.68359,-8.44035 -3.76953,-4.09276 -4.23437,4.60631 -1.30469,-1.38386 v -21.07539 l 5.56641,6.1862 z m 31.29688,23.36484 -2,-2.3208 v -8.89511 l -5.79688,-6.40964 5.79688,-6.44494 v -7.60533 l -9.62109,10.63179 v -10.63179 l -5.19141,5.73536 v 23.61966 l -2.08594,2.3208 4.60938,5.18652 4.69531,-5.18652 -2.02734,-2.3208 v -11.05126 l 4.43359,4.95915 v 6.09211 l -2.05859,2.3208 4.58203,5.18652 z m 41.70312,-4.12414 v -6.3822 h 4.72266 v 3.99476 l -3.41797,3.83795 z m 6.98438,-22.01233 -5.01563,-5.57463 -7.1289,7.89543 v 21.49487 l 6.8125,7.50732 8.23047,-9.18128 v -6.51158 l 4.98828,-5.54327 h -4.98828 v -5.18652 l -4.63672,5.18652 h -5.2461 v -9.34201 l 3.10157,3.60666 z m 58.38281,23.81567 v -6.83304 l -9.97265,-11.05125 v -7.18587 l 6.58203,7.37795 3.39062,-3.80266 -7.16015,-7.89543 -7.39063,8.34626 v 5.64127 l 10.75391,12.05093 -2.72657,2.99901 -4.20312,-4.77097 -3.71094,4.19077 7.625,8.44035 z m 30.66406,-29.35502 h -14.11718 l -5.10547,5.73536 h 6.41015 v 23.61966 l -2.05859,2.3208 4.63672,5.18652 4.66797,-5.18652 -2.08985,-2.3208 v -23.61966 h 2.55469 z m 19.00782,25.87381 -2.8125,3.12838 -1.33203,-1.45051 v -21.26748 l 4.14453,4.63768 z m 5.16015,2.54818 v -20.36583 l -7.30468,-8.09144 -7.10157,7.89543 v 21.49487 l 6.72266,7.50732 z m 30.96485,3.25383 -2,-2.3208 V 824.6003 l -7.10157,-7.86015 -7.71093,8.507 v 20.84802 l -2.08594,2.3208 4.60937,5.18652 4.69532,-5.18652 -2.02735,-2.3208 v -23.07082 l 4.4336,5.02579 v 18.04503 l -2.0586,2.3208 4.58203,5.18652 z m 27.875,-23.45892 -7.44922,-8.25218 -7.10547,7.89543 v 21.49487 l 6.72656,7.50732 7.6836,-8.44035 -3.76954,-4.09276 -4.20312,4.67296 -1.33594,-1.45051 v -6.3822 h 2.75391 l 4.95703,-5.54327 h -7.71094 v -9.34201 l 5.53906,6.31557 z m 27.26953,21.13812 v -6.83304 l -9.97266,-11.05125 v -7.18587 l 6.58203,7.37795 3.39063,-3.80266 -7.16016,-7.89543 -7.39062,8.34626 v 5.64127 l 10.7539,12.05093 -2.72656,2.99901 -4.20312,-4.77097 -3.71094,4.19077 7.625,8.44035 z M 687.39844,794.30442 669.65625,774.58153 c -2.92969,-3.25383 -2.92969,-8.5266 0,-11.78042 l 52.46094,-58.318 c 1.86328,-2.06991 4.88281,-2.06991 6.74609,0 l 12.64844,14.06202 c 6.60937,7.34659 6.57031,19.26815 -0.0937,26.55202 -13.65235,14.9284 -35.17188,38.52061 -44.52735,49.14847 -2.59765,2.95196 -6.86718,2.97941 -9.49218,0.0588 m -26.48828,-90.10357 32.48437,-36.10965 c 2.63281,-2.92844 6.91016,-2.92844 9.54688,0 l 17.2539,19.17799 c 2.63281,2.93236 2.63281,7.68374 0,10.6161 l -32.61328,36.25077 c -2.65625,2.95196 -6.96484,2.93236 -9.59375,-0.051 -4.81641,-5.48053 -12.22656,-13.87776 -17.08203,-19.27206 -2.63672,-2.93628 -2.63281,-7.67981 0.004,-10.61218 m 44.67578,-49.53658 17.42968,-19.37792 c 2.75782,-3.06566 7.23047,-3.06566 9.98438,0 l 27.10547,30.13515 c 5.73437,6.37044 5.73437,16.70037 0,23.07081 l -15.63281,17.37857 -38.89454,-43.41703 c -1.92968,-2.15223 -1.92968,-5.63735 0.008,-7.78958 m -44.92578,-19.75427 40.51562,-45.3066 c 2.65234,-2.96765 6.97266,-2.97548 9.63281,-0.0157 l 18.25391,20.29134 c 2.39453,2.66186 2.39453,6.97416 0,9.63603 l -49.94141,55.52284 c -2.57031,2.85396 -6.74218,2.83044 -9.28515,-0.0549 l -9.26563,-10.49457 c -7.25781,-8.22474 -7.21875,-21.40862 0.0899,-29.57848" style="fill:#211e1e;fill-opacity:1;fill-rule:nonzero;stroke:none;stroke-width:1.00179"/>
    <rect y="1205.468" x="1012.8318" height="3.8095238" width="1.9047619" id="rect3" style="fill:#ffffff;fill-opacity:1;stroke-width:1.2963"/>
  </g>
</svg>