<?xml version="1.0" encoding="UTF-8" standalone="no"?>
<svg
   width="292.18762"
   height="204.64253"
   viewBox="0 0 378.76173 265.27736"
   version="1.1"
   id="svg1"
   sodipodi:docname="logo_final (1).svg"
   inkscape:version="1.4.2 (f4327f4, 2025-05-13)"
   xmlns:inkscape="http://www.inkscape.org/namespaces/inkscape"
   xmlns:sodipodi="http://sodipodi.sourceforge.net/DTD/sodipodi-0.dtd"
   xmlns="http://www.w3.org/2000/svg"
   xmlns:svg="http://www.w3.org/2000/svg">
  <defs
     id="defs1" />
  <sodipodi:namedview
     id="namedview1"
     pagecolor="#ffffff"
     bordercolor="#000000"
     borderopacity="0.25"
     inkscape:showpageshadow="2"
     inkscape:pageopacity="0.0"
     inkscape:pagecheckerboard="0"
     inkscape:deskcolor="#d1d1d1"
     inkscape:zoom="1.3611111"
     inkscape:cx="168.61224"
     inkscape:cy="149.5102"
     inkscape:window-width="3840"
     inkscape:window-height="2054"
     inkscape:window-x="2869"
     inkscape:window-y="-11"
     inkscape:window-maximized="1"
     inkscape:current-layer="surface1" />
  <g
     id="surface1"
     transform="translate(-517.59375,-584.51562)">
    <path
       style="fill:#211e1e;fill-opacity:1;fill-rule:nonzero;stroke:none"
       d="m 532.14453,842.3125 v -6.80859 l -9.97266,-11.01172 v -7.16016 l 6.58204,7.35156 3.39062,-3.78906 -7.16016,-7.86719 -7.39062,8.31641 v 5.62109 l 10.75391,12.00782 -2.72266,2.98828 -4.20313,-4.75391 -3.71093,4.17578 7.62109,8.41016 z m 30.66406,-29.25 h -14.11718 l -5.10157,5.71484 h 6.40625 v 23.53516 l -2.05859,2.3125 4.63672,5.16797 4.66797,-5.16797 -2.08594,-2.3125 v -23.53516 h 2.55078 z m 19.17578,18.58984 h -4.4375 v -12.32812 l 4.4375,5.00781 z m 7.1875,12.97266 -2,-2.3125 v -21.41797 l -7.10156,-7.83203 -7.71094,8.47656 v 20.77344 l -2.08593,2.3125 4.60937,5.16797 4.69531,-5.16797 -2.03125,-2.3125 v -4.6875 h 4.4375 v 4.6875 l -2.05859,2.3125 4.58203,5.16797 z m 27.875,-23.28125 -7.45312,-8.31641 -7.10156,7.86719 v 21.41797 l 6.72656,7.48047 7.68359,-8.41016 -3.76953,-4.07812 -4.23437,4.58984 -1.30469,-1.37891 v -21 l 5.56641,6.16407 z m 31.29688,23.28125 -2,-2.3125 v -8.86328 l -5.79688,-6.38672 5.79688,-6.42188 v -7.57812 l -9.62109,10.59375 V 813.0625 l -5.19141,5.71484 v 23.53516 l -2.08594,2.3125 4.60938,5.16797 4.69531,-5.16797 -2.02734,-2.3125 v -11.01172 l 4.43359,4.94141 v 6.07031 l -2.05859,2.3125 4.58203,5.16797 z m 41.70312,-4.10938 v -6.35937 h 4.72266 v 3.98047 l -3.41797,3.82422 z m 6.98438,-21.93359 -5.01563,-5.55469 -7.1289,7.86719 v 21.41797 l 6.8125,7.48047 8.23047,-9.14844 v -6.48828 l 4.98828,-5.52344 h -4.98828 v -5.16797 l -4.63672,5.16797 h -5.2461 v -9.30859 l 3.10157,3.59375 z m 58.38281,23.73047 v -6.80859 l -9.97265,-11.01172 v -7.16016 l 6.58203,7.35156 3.39062,-3.78906 -7.16015,-7.86719 -7.39063,8.31641 v 5.62109 l 10.75391,12.00782 -2.72657,2.98828 -4.20312,-4.75391 -3.71094,4.17578 7.625,8.41016 z m 30.66406,-29.25 h -14.11718 l -5.10547,5.71484 h 6.41015 v 23.53516 l -2.05859,2.3125 4.63672,5.16797 4.66797,-5.16797 -2.08985,-2.3125 v -23.53516 h 2.55469 z m 19.00782,25.78125 -2.8125,3.11719 -1.33203,-1.44532 v -21.1914 l 4.14453,4.62109 z m 5.16015,2.53906 v -20.29297 l -7.30468,-8.0625 -7.10157,7.86719 v 21.41797 l 6.72266,7.48047 z m 30.96485,3.24219 -2,-2.3125 v -21.41797 l -7.10157,-7.83203 -7.71093,8.47656 v 20.77344 l -2.08594,2.3125 4.60937,5.16797 4.69532,-5.16797 -2.02735,-2.3125 v -22.98828 l 4.4336,5.00781 v 17.98047 l -2.0586,2.3125 4.58203,5.16797 z m 27.875,-23.375 -7.44922,-8.22266 -7.10547,7.86719 v 21.41797 l 6.72656,7.48047 7.6836,-8.41016 -3.76954,-4.07812 -4.20312,4.65625 -1.33594,-1.44532 v -6.35937 h 2.75391 l 4.95703,-5.52344 h -7.71094 v -9.30859 l 5.53906,6.29297 z m 27.26953,21.0625 v -6.80859 l -9.97266,-11.01172 v -7.16016 l 6.58203,7.35156 3.39063,-3.78906 -7.16016,-7.86719 -7.39062,8.31641 v 5.62109 l 10.7539,12.00782 -2.72656,2.98828 -4.20312,-4.75391 -3.71094,4.17578 7.625,8.41016 z M 687.39844,790.70703 669.65625,771.05469 c -2.92969,-3.24219 -2.92969,-8.4961 0,-11.73828 l 52.46094,-58.10938 c 1.86328,-2.0625 4.88281,-2.0625 6.74609,0 l 12.64844,14.01172 c 6.60937,7.32031 6.57031,19.19922 -0.0937,26.45703 -13.65235,14.875 -35.17188,38.38281 -44.52735,48.97266 -2.59765,2.9414 -6.86718,2.96875 -9.49218,0.0586 m -26.48828,-89.78125 32.48437,-35.98047 c 2.63281,-2.91797 6.91016,-2.91797 9.54688,0 l 17.2539,19.10938 c 2.63281,2.92187 2.63281,7.65625 0,10.57812 l -32.61328,36.1211 c -2.65625,2.9414 -6.96484,2.92187 -9.59375,-0.0508 C 673.17192,725.24219 665.76177,716.875 660.9063,711.5 c -2.63672,-2.92578 -2.63281,-7.65234 0.004,-10.57422 m 44.67578,-49.35937 17.42968,-19.3086 c 2.75782,-3.05469 7.23047,-3.05469 9.98438,0 l 27.10547,30.02735 c 5.73437,6.34765 5.73437,16.64062 0,22.98828 l -15.63281,17.3164 -38.89454,-43.26172 c -1.92968,-2.14453 -1.92968,-5.61718 0.008,-7.76171 m -44.92578,-19.6836 40.51562,-45.14453 c 2.65234,-2.95703 6.97266,-2.96484 9.63281,-0.0156 l 18.25391,20.21875 c 2.39453,2.65234 2.39453,6.94921 0,9.60156 l -49.94141,55.32422 c -2.57031,2.84375 -6.74218,2.82031 -9.28515,-0.0547 l -9.26563,-10.45703 c -7.25781,-8.19531 -7.21875,-21.33203 0.0899,-29.47266"
       id="path1" />
  </g>
</svg>
